<svg xmlns="http://www.w3.org/2000/svg" xmlns:xlink="http://www.w3.org/1999/xlink" width="1600" height="779"><defs><linearGradient x1="100%" y1="38.1476367%" x2="0%" y2="61.8523633%" id="A"><stop stop-color="#1f3c6a" offset="0%"/><stop stop-color="#178a9e" offset="50%"/><stop stop-color="#1bb4b7" offset="100%"/></linearGradient><path d="M0 439V0h1600v585.672c-118.254 65.94-233.254 116.803-345 152.588-267 82.574-455 20.504-521-19.074s-186.5-132.26-418-53.606C161.667 718.017 56.333 677.45 0 543.877V439z" id="B"/><linearGradient x1="100%" y1="39.0333401%" x2="0%" y2="60.9666599%" id="C"><stop stop-color="#18305a" offset="0%"/><stop stop-color="#135f7c" offset="50%"/><stop stop-color="#128998" offset="100%"/></linearGradient><linearGradient x1="100%" y1="39.8227948%" x2="-1.00859788%" y2="60.1772052%" id="D"><stop stop-color="#12264c" offset="0%"/><stop stop-color="#0f5470" offset="50%"/><stop stop-color="#0d7c8b" offset="100%"/></linearGradient><linearGradient x1="100%" y1="40.4347899%" x2="0%" y2="59.5652101%" id="E"><stop stop-color="#0e1e40" offset="0%"/><stop stop-color="#0b4c66" offset="50%"/><stop stop-color="#0a6e7d" offset="100%"/></linearGradient></defs><g fill-rule="evenodd"><mask id="F" fill="#fff"><use xlink:href="#B"/></mask><use fill="url(#A)" xlink:href="#B"/><g fill-rule="nonzero"><path d="M1600 518c-257.5 199-483.5 215.5-571.36 227.417S800 741.764 734 702.186s-186.5-124.26-418-45.606C161.667 709.017 56.333 668.45 0 534.877V0h1600v518z" fill="url(#C)" opacity=".15" mask="url(#F)"/><path d="M1600 452c-248 213-460 242-571.36 261.417S800 717.764 734 678.186s-186.5-108.26-418-29.606C161.667 701.017 56.333 660.45 0 526.877V0h1600v452z" fill="url(#D)" opacity=".15" mask="url(#F)"/><path d="M1600 388c-272.5 250-460 282-571.36 301.417S800 701.764 734 662.186s-186.5-100.26-418-21.606C161.667 693.017 56.333 652.45 0 518.877V0h1600v388z" fill="url(#E)" opacity=".15" mask="url(#F)"/></g></g></svg>